# xmcd
#
# Track frame offsets:
#	750
#	11779
#	26552
#	45254
#	60954
#	78004
#	92198
#	105922
#	120021
#	135695
#	146124
#	160171
#	171653
#	188189
#	199514
#	214064
#	227542
#	254470
#
# Disc length: 3400 seconds
#
# Revision: 1
# Processed by: cddbd v1.5.2PL0 Copyright (c) Steve Scherf et al.
# Submitted via: audiograbber 1.83.01
#
DISCID=e20d3e12
DTITLE=Die Stoakogler - Die SuperStoaniShow
DYEAR=2004
DGENRE=Volksmusik
TTITLE0=Ob Tag ob Nacht
TTITLE1=Dosanolle
TTITLE2=Wer fahrt mit uns über's Meer
TTITLE3=Die Superstoanishow
TTITLE4=Witze: Lustige Sprüche
TTITLE5=Ein ernstes Lied (wenn i anfang, kann i net aufhör'n)
TTITLE6=Das Urgestein der Volksmusik
TTITLE7=Die Heimat hat uns wieder
TTITLE8=Bergbauernland
TTITLE9=Boarisch bis der Morgen graut
TTITLE10=Am Berg bei dem Marterl
TTITLE11=Einst ging ich spazieren
TTITLE12=Witze: Deftiges vom Land
TTITLE13=Die Teichalmpolka
TTITLE14=In meinen Bergen
TTITLE15=Die schönen goldenen Zeiten
TTITLE16=Im schönsten Land der Welt
TTITLE17=Daten-CD
EXTD=
EXTT0=
EXTT1=
EXTT2=
EXTT3=
EXTT4=
EXTT5=
EXTT6=
EXTT7=
EXTT8=
EXTT9=
EXTT10=
EXTT11=
EXTT12=
EXTT13=
EXTT14=
EXTT15=
EXTT16=
EXTT17=
PLAYORDER=
